<svg width="166" height="52" viewBox="0 0 166 52" fill="none" xmlns="http://www.w3.org/2000/svg">
<path d="M47.174 3.81818H49.3267V10.4304C49.3267 11.1728 49.1494 11.8224 48.7947 12.3793C48.4434 12.9361 47.9512 13.3703 47.3182 13.6818C46.6851 13.9901 45.9477 14.1442 45.1058 14.1442C44.2607 14.1442 43.5215 13.9901 42.8885 13.6818C42.2554 13.3703 41.7633 12.9361 41.4119 12.3793C41.0606 11.8224 40.8849 11.1728 40.8849 10.4304V3.81818H43.0376V10.2464C43.0376 10.6342 43.1222 10.9789 43.2912 11.2805C43.4635 11.5821 43.7055 11.8191 44.017 11.9915C44.3286 12.1638 44.6915 12.25 45.1058 12.25C45.5234 12.25 45.8864 12.1638 46.1946 11.9915C46.5062 11.8191 46.7464 11.5821 46.9155 11.2805C47.0878 10.9789 47.174 10.6342 47.174 10.2464V3.81818ZM53.176 9.58523V14H51.0581V6.36364H53.0765V7.71094H53.166C53.335 7.26681 53.6184 6.91548 54.0162 6.65696C54.4139 6.39512 54.8961 6.2642 55.4629 6.2642C55.9932 6.2642 56.4556 6.38021 56.85 6.61222C57.2444 6.84422 57.551 7.17566 57.7697 7.60653C57.9885 8.03409 58.0978 8.54451 58.0978 9.13778V14H55.9799V9.51562C55.9833 9.0483 55.8639 8.68371 55.622 8.42188C55.38 8.15672 55.0469 8.02415 54.6227 8.02415C54.3377 8.02415 54.0858 8.08546 53.867 8.2081C53.6516 8.33073 53.4825 8.50971 53.3599 8.74503C53.2406 8.97704 53.1793 9.2571 53.176 9.58523ZM59.767 14V6.36364H61.8849V14H59.767ZM60.831 5.37926C60.5161 5.37926 60.246 5.27486 60.0206 5.06605C59.7985 4.85393 59.6875 4.60038 59.6875 4.3054C59.6875 4.01373 59.7985 3.76349 60.0206 3.55469C60.246 3.34257 60.5161 3.23651 60.831 3.23651C61.1458 3.23651 61.4143 3.34257 61.6364 3.55469C61.8617 3.76349 61.9744 4.01373 61.9744 4.3054C61.9744 4.60038 61.8617 4.85393 61.6364 5.06605C61.4143 5.27486 61.1458 5.37926 60.831 5.37926ZM70.7008 6.36364L68.0311 14H65.6447L62.975 6.36364H65.2122L66.7981 11.8274H66.8777L68.4586 6.36364H70.7008ZM75.0186 14.1491C74.2331 14.1491 73.557 13.9901 72.9902 13.6719C72.4268 13.3504 71.9926 12.8963 71.6877 12.3097C71.3828 11.7197 71.2303 11.022 71.2303 10.2166C71.2303 9.43111 71.3828 8.74171 71.6877 8.14844C71.9926 7.55516 72.4218 7.0928 72.9753 6.76136C73.5321 6.42992 74.1851 6.2642 74.9341 6.2642C75.4379 6.2642 75.9069 6.34541 76.3411 6.50781C76.7786 6.6669 77.1597 6.9072 77.4846 7.22869C77.8127 7.55019 78.0679 7.95455 78.2502 8.44176C78.4325 8.92566 78.5236 9.49242 78.5236 10.142V10.7237H72.0755V9.41122H76.53C76.53 9.1063 76.4637 8.83617 76.3311 8.60085C76.1986 8.36553 76.0146 8.18158 75.7793 8.04901C75.5473 7.91312 75.2772 7.84517 74.9689 7.84517C74.6474 7.84517 74.3624 7.91974 74.1138 8.06889C73.8685 8.21473 73.6763 8.41193 73.5371 8.66051C73.3979 8.90578 73.3266 9.17921 73.3233 9.48082V10.7287C73.3233 11.1065 73.3929 11.433 73.5321 11.7081C73.6747 11.9832 73.8752 12.1953 74.1337 12.3445C74.3922 12.4936 74.6988 12.5682 75.0534 12.5682C75.2888 12.5682 75.5042 12.535 75.6998 12.4688C75.8953 12.4025 76.0627 12.303 76.2019 12.1705C76.3411 12.0379 76.4471 11.8755 76.5201 11.6832L78.4789 11.8125C78.3794 12.2831 78.1756 12.6941 77.8674 13.0455C77.5624 13.3935 77.168 13.6652 76.6841 13.8608C76.2035 14.053 75.6484 14.1491 75.0186 14.1491ZM79.9057 14V6.36364H81.959V7.69602H82.0385C82.1777 7.22206 82.4114 6.86411 82.7395 6.62216C83.0676 6.37689 83.4455 6.25426 83.873 6.25426C83.9791 6.25426 84.0935 6.26089 84.2161 6.27415C84.3387 6.28741 84.4464 6.30563 84.5392 6.32883V8.2081C84.4398 8.17827 84.3023 8.15175 84.1266 8.12855C83.9509 8.10535 83.7902 8.09375 83.6444 8.09375C83.3328 8.09375 83.0544 8.1617 82.8091 8.29759C82.5672 8.43016 82.3749 8.61577 82.2324 8.8544C82.0932 9.09304 82.0236 9.36813 82.0236 9.67969V14H79.9057ZM91.9879 8.54119L90.049 8.66051C90.0159 8.49479 89.9446 8.34564 89.8352 8.21307C89.7259 8.07718 89.5817 7.96946 89.4027 7.88991C89.227 7.80705 89.0166 7.76562 88.7713 7.76562C88.4432 7.76562 88.1664 7.83523 87.9411 7.97443C87.7157 8.11032 87.603 8.29261 87.603 8.52131C87.603 8.7036 87.6759 8.85772 87.8217 8.98366C87.9676 9.10961 88.2178 9.2107 88.5724 9.28693L89.9545 9.56534C90.697 9.7178 91.2505 9.96307 91.6151 10.3011C91.9796 10.6392 92.1619 11.0833 92.1619 11.6335C92.1619 12.134 92.0144 12.5732 91.7195 12.951C91.4278 13.3288 91.0268 13.6238 90.5163 13.8359C90.0092 14.0447 89.4242 14.1491 88.7614 14.1491C87.7505 14.1491 86.9451 13.9387 86.3452 13.5178C85.7486 13.0935 85.3989 12.5168 85.2962 11.7876L87.3793 11.6783C87.4422 11.9865 87.5947 12.2218 87.8366 12.3842C88.0786 12.5433 88.3885 12.6229 88.7663 12.6229C89.1375 12.6229 89.4358 12.5516 89.6612 12.4091C89.8899 12.2633 90.0059 12.076 90.0092 11.8473C90.0059 11.6551 89.9247 11.4976 89.7656 11.375C89.6065 11.2491 89.3613 11.1529 89.0298 11.0866L87.7074 10.8232C86.9616 10.674 86.4065 10.4155 86.0419 10.0476C85.6806 9.67969 85.5 9.2107 85.5 8.64062C85.5 8.15009 85.6326 7.72751 85.8977 7.37287C86.1662 7.01823 86.5424 6.74479 87.0263 6.55256C87.5135 6.36032 88.0836 6.2642 88.7365 6.2642C89.701 6.2642 90.46 6.46804 91.0135 6.87571C91.5703 7.28338 91.8951 7.83854 91.9879 8.54119ZM95.6731 14.1442C95.1859 14.1442 94.7517 14.0597 94.3706 13.8906C93.9894 13.7183 93.6878 13.4647 93.4657 13.13C93.247 12.7919 93.1376 12.371 93.1376 11.8672C93.1376 11.4429 93.2155 11.0866 93.3713 10.7983C93.527 10.5099 93.7392 10.2779 94.0076 10.1023C94.2761 9.92661 94.581 9.79403 94.9224 9.70455C95.2671 9.61506 95.6284 9.55208 96.0062 9.51562C96.4503 9.46922 96.8083 9.42614 97.0801 9.38636C97.3519 9.34328 97.5491 9.2803 97.6717 9.19744C97.7943 9.11458 97.8556 8.99195 97.8556 8.82955V8.79972C97.8556 8.48485 97.7562 8.24124 97.5574 8.06889C97.3618 7.89654 97.0834 7.81037 96.7221 7.81037C96.341 7.81037 96.0377 7.89489 95.8123 8.06392C95.5869 8.22964 95.4378 8.43845 95.3649 8.69034L93.4061 8.53125C93.5055 8.06723 93.7011 7.66619 93.9927 7.32812C94.2844 6.98674 94.6606 6.7249 95.1213 6.54261C95.5853 6.35701 96.1222 6.2642 96.7321 6.2642C97.1563 6.2642 97.5623 6.31392 97.9501 6.41335C98.3412 6.51278 98.6876 6.6669 98.9892 6.87571C99.2941 7.08452 99.5344 7.35298 99.71 7.68111C99.8857 8.00592 99.9735 8.39536 99.9735 8.84943V14H97.965V12.9411H97.9054C97.7827 13.1797 97.6187 13.3902 97.4132 13.5724C97.2077 13.7514 96.9608 13.8923 96.6724 13.995C96.3841 14.0945 96.051 14.1442 95.6731 14.1442ZM96.2797 12.6825C96.5912 12.6825 96.8663 12.6212 97.1049 12.4986C97.3436 12.3726 97.5308 12.2036 97.6667 11.9915C97.8026 11.7794 97.8706 11.5391 97.8706 11.2706V10.4602C97.8043 10.5033 97.7131 10.5431 97.5971 10.5795C97.4844 10.6127 97.3568 10.6442 97.2143 10.674C97.0718 10.7005 96.9293 10.7254 96.7868 10.7486C96.6442 10.7685 96.515 10.7867 96.399 10.8033C96.1504 10.8397 95.9333 10.8977 95.7477 10.9773C95.5621 11.0568 95.4179 11.1645 95.3152 11.3004C95.2124 11.433 95.161 11.5987 95.161 11.7976C95.161 12.0859 95.2654 12.3063 95.4743 12.4588C95.6864 12.608 95.9548 12.6825 96.2797 12.6825ZM103.735 3.81818V14H101.617V3.81818H103.735ZM40.4972 39.593V37.8182H48.8594V39.593H45.7422V48H43.6143V39.593H40.4972ZM49.4038 48V40.3636H51.457V41.696H51.5366C51.6758 41.2221 51.9094 40.8641 52.2376 40.6222C52.5657 40.3769 52.9435 40.2543 53.3711 40.2543C53.4772 40.2543 53.5915 40.2609 53.7141 40.2741C53.8368 40.2874 53.9445 40.3056 54.0373 40.3288V42.2081C53.9379 42.1783 53.8003 42.1518 53.6246 42.1286C53.449 42.1054 53.2882 42.0938 53.1424 42.0938C52.8308 42.0938 52.5524 42.1617 52.3072 42.2976C52.0652 42.4302 51.873 42.6158 51.7305 42.8544C51.5913 43.093 51.5217 43.3681 51.5217 43.6797V48H49.4038ZM57.0911 48.1442C56.6039 48.1442 56.1697 48.0597 55.7885 47.8906C55.4074 47.7183 55.1058 47.4647 54.8837 47.13C54.665 46.7919 54.5556 46.371 54.5556 45.8672C54.5556 45.4429 54.6335 45.0866 54.7892 44.7983C54.945 44.5099 55.1571 44.2779 55.4256 44.1023C55.6941 43.9266 55.999 43.794 56.3404 43.7045C56.6851 43.6151 57.0463 43.5521 57.4242 43.5156C57.8683 43.4692 58.2263 43.4261 58.498 43.3864C58.7698 43.3433 58.967 43.2803 59.0897 43.1974C59.2123 43.1146 59.2736 42.992 59.2736 42.8295V42.7997C59.2736 42.4848 59.1742 42.2412 58.9753 42.0689C58.7798 41.8965 58.5014 41.8104 58.1401 41.8104C57.7589 41.8104 57.4557 41.8949 57.2303 42.0639C57.0049 42.2296 56.8558 42.4384 56.7828 42.6903L54.824 42.5312C54.9235 42.0672 55.119 41.6662 55.4107 41.3281C55.7024 40.9867 56.0785 40.7249 56.5392 40.5426C57.0033 40.357 57.5402 40.2642 58.15 40.2642C58.5743 40.2642 58.9803 40.3139 59.3681 40.4134C59.7592 40.5128 60.1055 40.6669 60.4071 40.8757C60.7121 41.0845 60.9524 41.353 61.128 41.6811C61.3037 42.0059 61.3915 42.3954 61.3915 42.8494V48H59.383V46.9411H59.3233C59.2007 47.1797 59.0366 47.3902 58.8311 47.5724C58.6257 47.7514 58.3787 47.8923 58.0904 47.995C57.802 48.0945 57.4689 48.1442 57.0911 48.1442ZM57.6976 46.6825C58.0092 46.6825 58.2843 46.6212 58.5229 46.4986C58.7615 46.3726 58.9488 46.2036 59.0847 45.9915C59.2206 45.7794 59.2885 45.5391 59.2885 45.2706V44.4602C59.2222 44.5033 59.1311 44.5431 59.0151 44.5795C58.9024 44.6127 58.7748 44.6442 58.6323 44.674C58.4898 44.7005 58.3472 44.7254 58.2047 44.7486C58.0622 44.7685 57.9329 44.7867 57.8169 44.8033C57.5684 44.8397 57.3513 44.8977 57.1657 44.9773C56.9801 45.0568 56.8359 45.1645 56.7331 45.3004C56.6304 45.433 56.579 45.5987 56.579 45.7976C56.579 46.0859 56.6834 46.3063 56.8922 46.4588C57.1043 46.608 57.3728 46.6825 57.6976 46.6825ZM65.8485 48.1243C65.2685 48.1243 64.7432 47.9751 64.2725 47.6768C63.8052 47.3752 63.434 46.9328 63.1589 46.3494C62.8871 45.7628 62.7512 45.0436 62.7512 44.1918C62.7512 43.3168 62.8921 42.5893 63.1738 42.0092C63.4556 41.4259 63.8301 40.9901 64.2974 40.7017C64.7681 40.41 65.2834 40.2642 65.8436 40.2642C66.2711 40.2642 66.6274 40.3371 66.9125 40.483C67.2008 40.6255 67.4328 40.8045 67.6085 41.0199C67.7875 41.232 67.9234 41.4408 68.0162 41.6463H68.0808V37.8182H70.1937V48H68.1056V46.777H68.0162C67.9167 46.9891 67.7759 47.1996 67.5936 47.4084C67.4146 47.6139 67.1809 47.7846 66.8926 47.9205C66.6075 48.0563 66.2595 48.1243 65.8485 48.1243ZM66.5197 46.4389C66.8611 46.4389 67.1494 46.3461 67.3848 46.1605C67.6234 45.9716 67.8057 45.7081 67.9316 45.37C68.0609 45.032 68.1255 44.6359 68.1255 44.1818C68.1255 43.7277 68.0626 43.3333 67.9366 42.9986C67.8107 42.6638 67.6284 42.4053 67.3897 42.223C67.1511 42.0407 66.8611 41.9496 66.5197 41.9496C66.1717 41.9496 65.8784 42.044 65.6397 42.233C65.4011 42.4219 65.2205 42.6837 65.0978 43.0185C64.9752 43.3532 64.9139 43.741 64.9139 44.1818C64.9139 44.6259 64.9752 45.0187 65.0978 45.3601C65.2238 45.6982 65.4044 45.9633 65.6397 46.1555C65.8784 46.3445 66.1717 46.4389 66.5197 46.4389ZM75.4151 48.1491C74.6296 48.1491 73.9535 47.9901 73.3867 47.6719C72.8233 47.3504 72.3891 46.8963 72.0842 46.3097C71.7792 45.7197 71.6268 45.022 71.6268 44.2166C71.6268 43.4311 71.7792 42.7417 72.0842 42.1484C72.3891 41.5552 72.8183 41.0928 73.3718 40.7614C73.9286 40.4299 74.5816 40.2642 75.3306 40.2642C75.8344 40.2642 76.3034 40.3454 76.7376 40.5078C77.1751 40.6669 77.5562 40.9072 77.881 41.2287C78.2092 41.5502 78.4644 41.9545 78.6467 42.4418C78.829 42.9257 78.9201 43.4924 78.9201 44.142V44.7237H72.4719V43.4112H76.9265C76.9265 43.1063 76.8602 42.8362 76.7276 42.6009C76.5951 42.3655 76.4111 42.1816 76.1758 42.049C75.9438 41.9131 75.6737 41.8452 75.3654 41.8452C75.0439 41.8452 74.7589 41.9197 74.5103 42.0689C74.265 42.2147 74.0728 42.4119 73.9336 42.6605C73.7944 42.9058 73.7231 43.1792 73.7198 43.4808V44.7287C73.7198 45.1065 73.7894 45.433 73.9286 45.7081C74.0711 45.9832 74.2717 46.1953 74.5302 46.3445C74.7887 46.4936 75.0953 46.5682 75.4499 46.5682C75.6853 46.5682 75.9007 46.535 76.0962 46.4688C76.2918 46.4025 76.4592 46.303 76.5984 46.1705C76.7376 46.0379 76.8436 45.8755 76.9165 45.6832L78.8754 45.8125C78.7759 46.2831 78.5721 46.6941 78.2638 47.0455C77.9589 47.3935 77.5645 47.6652 77.0806 47.8608C76.6 48.053 76.0449 48.1491 75.4151 48.1491Z" fill="white"/>
<path d="M49.8686 24.3828H47.6911C47.6513 24.1011 47.5701 23.8509 47.4474 23.6321C47.3248 23.41 47.1674 23.2211 46.9751 23.0653C46.7829 22.9096 46.5608 22.7902 46.3089 22.7074C46.0604 22.6245 45.7902 22.5831 45.4986 22.5831C44.9716 22.5831 44.5125 22.714 44.1214 22.9759C43.7304 23.2344 43.4271 23.6122 43.2116 24.1094C42.9962 24.6032 42.8885 25.2031 42.8885 25.9091C42.8885 26.6349 42.9962 27.2448 43.2116 27.7386C43.4304 28.2325 43.7353 28.6054 44.1264 28.8572C44.5175 29.1091 44.9699 29.2351 45.4837 29.2351C45.772 29.2351 46.0388 29.197 46.2841 29.1207C46.5327 29.0445 46.7531 28.9335 46.9453 28.7876C47.1375 28.6385 47.2966 28.4579 47.4226 28.2457C47.5518 28.0336 47.6413 27.7917 47.6911 27.5199L49.8686 27.5298C49.8123 27.9972 49.6714 28.4479 49.446 28.8821C49.224 29.313 48.924 29.6991 48.5462 30.0405C48.1716 30.3786 47.7242 30.647 47.2038 30.8459C46.6868 31.0414 46.1018 31.1392 45.4489 31.1392C44.5407 31.1392 43.7287 30.9337 43.0128 30.5227C42.3002 30.1117 41.7367 29.5168 41.3224 28.7379C40.9115 27.959 40.706 27.0161 40.706 25.9091C40.706 24.7988 40.9148 23.8542 41.3324 23.0753C41.75 22.2964 42.3168 21.7031 43.0327 21.2955C43.7486 20.8845 44.554 20.679 45.4489 20.679C46.0388 20.679 46.5857 20.7618 47.0895 20.9276C47.5966 21.0933 48.0457 21.3352 48.4368 21.6534C48.8279 21.9683 49.1461 22.3544 49.3913 22.8118C49.6399 23.2692 49.799 23.7929 49.8686 24.3828ZM51.3725 31V23.3636H53.4258V24.696H53.5053C53.6445 24.2221 53.8782 23.8641 54.2063 23.6222C54.5344 23.3769 54.9123 23.2543 55.3398 23.2543C55.4459 23.2543 55.5603 23.2609 55.6829 23.2741C55.8055 23.2874 55.9132 23.3056 56.006 23.3288V25.2081C55.9066 25.1783 55.7691 25.1518 55.5934 25.1286C55.4177 25.1054 55.257 25.0938 55.1112 25.0938C54.7996 25.0938 54.5212 25.1617 54.2759 25.2976C54.034 25.4302 53.8417 25.6158 53.6992 25.8544C53.56 26.093 53.4904 26.3681 53.4904 26.6797V31H51.3725ZM58.641 33.8636C58.3725 33.8636 58.1206 33.8421 57.8853 33.799C57.6533 33.7592 57.4611 33.7079 57.3086 33.6449L57.7859 32.0639C58.0344 32.1402 58.2582 32.1816 58.457 32.1882C58.6592 32.1948 58.8332 32.1484 58.979 32.049C59.1282 31.9496 59.2492 31.7805 59.342 31.5419L59.4663 31.2188L56.7269 23.3636H58.9542L60.5352 28.9716H60.6147L62.2106 23.3636H64.4528L61.4847 31.8253C61.3422 32.2363 61.1483 32.5942 60.9031 32.8991C60.6611 33.2074 60.3545 33.4444 59.9833 33.6101C59.6121 33.7791 59.1647 33.8636 58.641 33.8636ZM65.5366 33.8636V23.3636H67.6246V24.6463H67.7191C67.8119 24.4408 67.9461 24.232 68.1218 24.0199C68.3008 23.8045 68.5328 23.6255 68.8178 23.483C69.1062 23.3371 69.4641 23.2642 69.8917 23.2642C70.4485 23.2642 70.9622 23.41 71.4329 23.7017C71.9035 23.9901 72.2797 24.4259 72.5614 25.0092C72.8432 25.5893 72.984 26.3168 72.984 27.1918C72.984 28.0436 72.8465 28.7628 72.5714 29.3494C72.2996 29.9328 71.9284 30.3752 71.4577 30.6768C70.9904 30.9751 70.4667 31.1243 69.8867 31.1243C69.4757 31.1243 69.1261 31.0563 68.8377 30.9205C68.5527 30.7846 68.319 30.6139 68.1367 30.4084C67.9544 30.1996 67.8152 29.9891 67.7191 29.777H67.6545V33.8636H65.5366ZM67.6097 27.1818C67.6097 27.6359 67.6727 28.032 67.7987 28.37C67.9246 28.7081 68.1069 28.9716 68.3455 29.1605C68.5842 29.3461 68.8742 29.4389 69.2156 29.4389C69.5603 29.4389 69.8519 29.3445 70.0906 29.1555C70.3292 28.9633 70.5098 28.6982 70.6325 28.3601C70.7584 28.0187 70.8214 27.6259 70.8214 27.1818C70.8214 26.741 70.7601 26.3532 70.6374 26.0185C70.5148 25.6837 70.3342 25.4219 70.0955 25.233C69.8569 25.044 69.5636 24.9496 69.2156 24.9496C68.8709 24.9496 68.5792 25.0407 68.3406 25.223C68.1052 25.4053 67.9246 25.6638 67.7987 25.9986C67.6727 26.3333 67.6097 26.7277 67.6097 27.1818ZM78.4577 23.3636V24.9545H73.859V23.3636H78.4577ZM74.9031 21.5341H77.021V28.6534C77.021 28.849 77.0508 29.0014 77.1104 29.1108C77.1701 29.2169 77.253 29.2914 77.359 29.3345C77.4684 29.3776 77.5943 29.3991 77.7369 29.3991C77.8363 29.3991 77.9357 29.3909 78.0352 29.3743C78.1346 29.3544 78.2108 29.3395 78.2638 29.3295L78.5969 30.9055C78.4909 30.9387 78.3417 30.9768 78.1495 31.0199C77.9573 31.0663 77.7236 31.0945 77.4485 31.1044C76.9381 31.1243 76.4906 31.0563 76.1062 30.9006C75.725 30.7448 75.4284 30.5028 75.2163 30.1747C75.0041 29.8466 74.8997 29.4323 74.9031 28.9318V21.5341ZM83.2056 31.1491C82.4334 31.1491 81.7655 30.9851 81.2021 30.657C80.6419 30.3255 80.2094 29.8648 79.9045 29.2749C79.5996 28.6816 79.4471 27.9938 79.4471 27.2116C79.4471 26.4228 79.5996 25.7334 79.9045 25.1435C80.2094 24.5502 80.6419 24.0895 81.2021 23.7614C81.7655 23.4299 82.4334 23.2642 83.2056 23.2642C83.9779 23.2642 84.6441 23.4299 85.2042 23.7614C85.7676 24.0895 86.2018 24.5502 86.5067 25.1435C86.8117 25.7334 86.9641 26.4228 86.9641 27.2116C86.9641 27.9938 86.8117 28.6816 86.5067 29.2749C86.2018 29.8648 85.7676 30.3255 85.2042 30.657C84.6441 30.9851 83.9779 31.1491 83.2056 31.1491ZM83.2156 29.5085C83.5669 29.5085 83.8602 29.4091 84.0955 29.2102C84.3308 29.008 84.5082 28.733 84.6275 28.3849C84.7501 28.0369 84.8114 27.6409 84.8114 27.1967C84.8114 26.7526 84.7501 26.3565 84.6275 26.0085C84.5082 25.6605 84.3308 25.3854 84.0955 25.1832C83.8602 24.9811 83.5669 24.88 83.2156 24.88C82.8609 24.88 82.5626 24.9811 82.3207 25.1832C82.082 25.3854 81.9014 25.6605 81.7788 26.0085C81.6594 26.3565 81.5998 26.7526 81.5998 27.1967C81.5998 27.6409 81.6594 28.0369 81.7788 28.3849C81.9014 28.733 82.082 29.008 82.3207 29.2102C82.5626 29.4091 82.8609 29.5085 83.2156 29.5085ZM94.695 25.5412L92.756 25.6605C92.7229 25.4948 92.6516 25.3456 92.5423 25.2131C92.4329 25.0772 92.2887 24.9695 92.1097 24.8899C91.9341 24.8071 91.7236 24.7656 91.4783 24.7656C91.1502 24.7656 90.8735 24.8352 90.6481 24.9744C90.4227 25.1103 90.31 25.2926 90.31 25.5213C90.31 25.7036 90.3829 25.8577 90.5288 25.9837C90.6746 26.1096 90.9248 26.2107 91.2795 26.2869L92.6616 26.5653C93.404 26.7178 93.9575 26.9631 94.3221 27.3011C94.6867 27.6392 94.869 28.0833 94.869 28.6335C94.869 29.134 94.7215 29.5732 94.4265 29.951C94.1348 30.3288 93.7338 30.6238 93.2234 30.8359C92.7163 31.0447 92.1313 31.1491 91.4684 31.1491C90.4575 31.1491 89.6521 30.9387 89.0522 30.5178C88.4556 30.0935 88.1059 29.5168 88.0032 28.7876L90.0863 28.6783C90.1493 28.9865 90.3017 29.2218 90.5437 29.3842C90.7856 29.5433 91.0955 29.6229 91.4734 29.6229C91.8446 29.6229 92.1429 29.5516 92.3683 29.4091C92.5969 29.2633 92.713 29.076 92.7163 28.8473C92.713 28.6551 92.6317 28.4976 92.4727 28.375C92.3136 28.2491 92.0683 28.1529 91.7369 28.0866L90.4144 27.8232C89.6687 27.674 89.1135 27.4155 88.7489 27.0476C88.3877 26.6797 88.207 26.2107 88.207 25.6406C88.207 25.1501 88.3396 24.7275 88.6048 24.3729C88.8732 24.0182 89.2494 23.7448 89.7333 23.5526C90.2205 23.3603 90.7906 23.2642 91.4435 23.2642C92.408 23.2642 93.167 23.468 93.7205 23.8757C94.2773 24.2834 94.6022 24.8385 94.695 25.5412ZM96.2026 33.8636V23.3636H98.2907V24.6463H98.3851C98.4779 24.4408 98.6122 24.232 98.7878 24.0199C98.9668 23.8045 99.1988 23.6255 99.4838 23.483C99.7722 23.3371 100.13 23.2642 100.558 23.2642C101.115 23.2642 101.628 23.41 102.099 23.7017C102.57 23.9901 102.946 24.4259 103.227 25.0092C103.509 25.5893 103.65 26.3168 103.65 27.1918C103.65 28.0436 103.512 28.7628 103.237 29.3494C102.966 29.9328 102.594 30.3752 102.124 30.6768C101.656 30.9751 101.133 31.1243 100.553 31.1243C100.142 31.1243 99.7921 31.0563 99.5037 30.9205C99.2187 30.7846 98.985 30.6139 98.8027 30.4084C98.6204 30.1996 98.4812 29.9891 98.3851 29.777H98.3205V33.8636H96.2026ZM98.2757 27.1818C98.2757 27.6359 98.3387 28.032 98.4647 28.37C98.5906 28.7081 98.7729 28.9716 99.0115 29.1605C99.2502 29.3461 99.5402 29.4389 99.8816 29.4389C100.226 29.4389 100.518 29.3445 100.757 29.1555C100.995 28.9633 101.176 28.6982 101.298 28.3601C101.424 28.0187 101.487 27.6259 101.487 27.1818C101.487 26.741 101.426 26.3532 101.303 26.0185C101.181 25.6837 101 25.4219 100.762 25.233C100.523 25.044 100.23 24.9496 99.8816 24.9496C99.5369 24.9496 99.2452 25.0407 99.0066 25.223C98.7712 25.4053 98.5906 25.6638 98.4647 25.9986C98.3387 26.3333 98.2757 26.7277 98.2757 27.1818ZM107.18 26.5852V31H105.062V20.8182H107.12V24.7109H107.21C107.382 24.2602 107.66 23.9072 108.045 23.652C108.429 23.3935 108.912 23.2642 109.492 23.2642C110.022 23.2642 110.484 23.3802 110.879 23.6122C111.276 23.8409 111.585 24.1707 111.803 24.6016C112.026 25.0291 112.135 25.5412 112.132 26.1378V31H110.014V26.5156C110.017 26.045 109.898 25.6787 109.656 25.4169C109.417 25.1551 109.082 25.0241 108.651 25.0241C108.363 25.0241 108.108 25.0855 107.886 25.2081C107.667 25.3307 107.495 25.5097 107.369 25.745C107.246 25.977 107.183 26.2571 107.18 26.5852ZM117.278 31.1491C116.493 31.1491 115.817 30.9901 115.25 30.6719C114.687 30.3504 114.252 29.8963 113.947 29.3097C113.643 28.7197 113.49 28.022 113.49 27.2166C113.49 26.4311 113.643 25.7417 113.947 25.1484C114.252 24.5552 114.682 24.0928 115.235 23.7614C115.792 23.4299 116.445 23.2642 117.194 23.2642C117.698 23.2642 118.167 23.3454 118.601 23.5078C119.038 23.6669 119.42 23.9072 119.744 24.2287C120.072 24.5502 120.328 24.9545 120.51 25.4418C120.692 25.9257 120.783 26.4924 120.783 27.142V27.7237H114.335V26.4112H118.79C118.79 26.1063 118.723 25.8362 118.591 25.6009C118.458 25.3655 118.274 25.1816 118.039 25.049C117.807 24.9131 117.537 24.8452 117.229 24.8452C116.907 24.8452 116.622 24.9197 116.374 25.0689C116.128 25.2147 115.936 25.4119 115.797 25.6605C115.658 25.9058 115.586 26.1792 115.583 26.4808V27.7287C115.583 28.1065 115.653 28.433 115.792 28.7081C115.934 28.9832 116.135 29.1953 116.393 29.3445C116.652 29.4936 116.959 29.5682 117.313 29.5682C117.549 29.5682 117.764 29.535 117.96 29.4688C118.155 29.4025 118.322 29.303 118.462 29.1705C118.601 29.0379 118.707 28.8755 118.78 28.6832L120.739 28.8125C120.639 29.2831 120.435 29.6941 120.127 30.0455C119.822 30.3935 119.428 30.6652 118.944 30.8608C118.463 31.053 117.908 31.1491 117.278 31.1491ZM122.165 31V23.3636H124.219V24.696H124.298C124.438 24.2221 124.671 23.8641 124.999 23.6222C125.327 23.3769 125.705 23.2543 126.133 23.2543C126.239 23.2543 126.353 23.2609 126.476 23.2741C126.598 23.2874 126.706 23.3056 126.799 23.3288V25.2081C126.7 25.1783 126.562 25.1518 126.386 25.1286C126.211 25.1054 126.05 25.0938 125.904 25.0938C125.593 25.0938 125.314 25.1617 125.069 25.2976C124.827 25.4302 124.635 25.6158 124.492 25.8544C124.353 26.093 124.283 26.3681 124.283 26.6797V31H122.165ZM131.019 31.1491C130.233 31.1491 129.557 30.9901 128.99 30.6719C128.427 30.3504 127.993 29.8963 127.688 29.3097C127.383 28.7197 127.23 28.022 127.23 27.2166C127.23 26.4311 127.383 25.7417 127.688 25.1484C127.993 24.5552 128.422 24.0928 128.975 23.7614C129.532 23.4299 130.185 23.2642 130.934 23.2642C131.438 23.2642 131.907 23.3454 132.341 23.5078C132.779 23.6669 133.16 23.9072 133.485 24.2287C133.813 24.5502 134.068 24.9545 134.25 25.4418C134.432 25.9257 134.524 26.4924 134.524 27.142V27.7237H128.075V26.4112H132.53C132.53 26.1063 132.464 25.8362 132.331 25.6009C132.199 25.3655 132.015 25.1816 131.779 25.049C131.547 24.9131 131.277 24.8452 130.969 24.8452C130.647 24.8452 130.362 24.9197 130.114 25.0689C129.869 25.2147 129.676 25.4119 129.537 25.6605C129.398 25.9058 129.327 26.1792 129.323 26.4808V27.7287C129.323 28.1065 129.393 28.433 129.532 28.7081C129.675 28.9832 129.875 29.1953 130.134 29.3445C130.392 29.4936 130.699 29.5682 131.053 29.5682C131.289 29.5682 131.504 29.535 131.7 29.4688C131.895 29.4025 132.063 29.303 132.202 29.1705C132.341 29.0379 132.447 28.8755 132.52 28.6832L134.479 28.8125C134.379 29.2831 134.176 29.6941 133.867 30.0455C133.562 30.3935 133.168 30.6652 132.684 30.8608C132.204 31.053 131.648 31.1491 131.019 31.1491Z" fill="#0A9B3B"/>
<path d="M12.6429 10.5C12.6429 8.18789 14.1442 6.5 15.7857 6.5H18.2143C19.8558 6.5 21.3571 8.18789 21.3571 10.5V43.5C21.3571 45.8121 19.8558 47.5 18.2143 47.5H15.7857C14.1442 47.5 12.6429 45.8121 12.6429 43.5V10.5ZM0.5 28.5C0.5 26.1879 2.00136 24.5 3.64286 24.5H6.07143C7.71293 24.5 9.21429 26.1879 9.21429 28.5V43.5C9.21429 45.8121 7.71293 47.5 6.07143 47.5H3.64286C2.00136 47.5 0.5 45.8121 0.5 43.5V28.5ZM27.9286 12.5H30.3571C31.9986 12.5 33.5 14.1879 33.5 16.5V43.5C33.5 45.8121 31.9986 47.5 30.3571 47.5H27.9286C26.2871 47.5 24.7857 45.8121 24.7857 43.5V16.5C24.7857 14.1879 26.2871 12.5 27.9286 12.5Z" fill="#0A9B3B" stroke="#0A9B3B"/>
</svg>
